<?xml version="1.0" encoding="UTF-8"?>
<svg id="Calque_2" data-name="Calque 2" xmlns="http://www.w3.org/2000/svg" viewBox="0 0 1080 1080">
  <defs>
    <style>
      .cls-1 {
        fill: #fcf9f4;
      }
    </style>
  </defs>
  <g>
    <path class="cls-1" d="m401.7,476.8c-4,0-8.4-1.2-13.9-3.8-28.5-13.6-19.3-56.1-8.7-105.3l.6-2.6c5.9-27.5,17.5-45.7,34.3-54.2,21.7-10.9,45.4-2.4,54.5,1.8,32.1,14.7,48.4,30.5,49.9,48.5,2.2,26.1-28.4,50.4-58.5,70.8-16,10.8-25.7,20.9-33.5,29-8.8,9.1-15.2,15.7-24.6,15.7Zm35.6-166.7c-6.9,0-14.3,1.3-21.3,4.8-15.6,7.8-26.4,25-32,51.1l-.6,2.6c-10.6,49.3-19,88.2,6.3,100.3,15.6,7.4,20.8,2,33.4-11.1,7.5-7.8,17.9-18.5,34.3-29.6h0c29.1-19.7,58.5-42.9,56.6-66.7-1.3-16-17.2-31.1-47.3-44.8-4.4-2-16.1-6.7-29.4-6.7Z"/>
    <path class="cls-1" d="m587.6,502c-11.6,0-22.5-4.3-32.6-15.5-5.6-6.1-8-14.6-7.2-24.4,1.8-20.3,18-45,41.3-62.8,16.9-12.9,44.3-16.4,73.4-9.3,22,5.3,39.5,15.8,44.7,26.7,12.5,26.5-10.7,38.2-42.9,54.6-3.3,1.7-6.7,3.4-10.2,5.2h0c-2.7,1.4-5.4,2.8-8,4.2-21.2,11.1-40.7,21.3-58.4,21.3Zm46-111.2c-16.7,0-31.4,4.1-41.8,12-22.3,17.1-37.8,40.5-39.5,59.6-.8,8.6,1.2,15.7,6,21,23.5,25.9,51,11.5,85.7-6.7,2.6-1.4,5.3-2.8,8-4.2h0c3.5-1.8,6.9-3.6,10.3-5.2,32.1-16.3,51.5-26.2,40.8-48.7-4.5-9.6-21.3-19.3-41.7-24.3-9.6-2.3-19-3.5-27.8-3.5Z"/>
    <path class="cls-1" d="m516,486.7c-2.4,0-4.8,0-7.2,0l-7.1-.2c-36.4-.8-77.7-1.8-93.5-21.5-6.3-7.8-8.2-18.1-5.7-30.6,10.3-52.1,97-113.3,151.9-119.3,24.6-2.7,42.2,1.7,53.6,13.5,15.6,15.9,19.9,45.8,13.6,93.8h0c-3.9,29.6-25.5,64.3-105.6,64.3Zm51.5-167.9c-4,0-8.2.2-12.7.7-25.5,2.8-60,18.6-90.1,41.2-32.2,24.2-53.3,51.4-57.9,74.5-2.2,11.3-.7,20.1,4.8,26.9,14.5,18.1,54.7,19,90.1,19.8l7.1.2c45.6,1.1,101.4-8.4,108.3-60.3h0c6.1-46.6,2.2-75.3-12.3-90.1-8.4-8.6-20.7-12.9-37.3-12.9Z"/>
    <path class="cls-1" d="m508.2,341c-4,5.8-10.1,8.4-13.6,6-3.5-2.4-5.4-11.9.8-14.8,8.3-4,9.9-6.9,13.6-6,11,2.6,3.2,9.1-.8,14.8Z"/>
  </g>
  <path class="cls-1" d="m569.3,478.4c0,4.3-6.4,11.6-12.9,11.6s-13.9-5.1-11.8-8.8c4.2-7.2,5.3-6.6,11.8-6.6s12.9-.4,12.9,3.8Z"/>
  <g>
    <path class="cls-1" d="m167.2,657.3v-12c0-16.1-5.2-24.3-16.1-31.1v-6l24.9-12h6.2c-2.4,10.8-3.2,24.5-3.2,47.8v13.1c0,16.7,4.8,23.9,17.3,29.5v6.2h-46.4v-6.2c12.4-5.6,17.3-13.3,17.3-29.5Zm4.2-105.4c8,0,13.7,5.6,13.7,13.3s-5.8,13.3-13.7,13.3-13.7-6.4-13.7-13.3,5.8-13.3,13.7-13.3Z"/>
    <path class="cls-1" d="m222.4,685.6l-3,7.4h-6.2l-8.2-33.7,5.8-2.6c11.2,13.9,25.9,21.5,45.4,21.5s21.9-4.2,21.9-12.2-12.9-12.3-27.9-14.7c-19.1-3.2-40.2-7-40.2-27.7s14.7-27.3,35.9-27.3,18.7,2.8,24.5,7.4l3.2-7.4h6.2l10.8,32.1-5.8,2.6c-10.2-12.2-22.3-17.1-37.3-17.1s-22.3,5.6-22.3,12c0,9.4,12.7,11.6,27.5,13.9,19.1,3,41,6.4,41,27.3s-15.5,28.9-38,28.9-24.5-4.4-33.3-10.4Z"/>
    <path class="cls-1" d="m319,657.3v-60.8c0-19.3-5.2-29.7-15.9-36.5v-6l24.5-11.6h6c-2,11.2-2.8,27.5-2.8,48.8v24.9c11.4-13.1,27.1-19.9,41.6-19.9s29.9,12.2,29.9,31.5v26.9c0,18.5,5.8,27.1,16.9,32.1v6.2h-47.6v-6.2c12.6-5.6,18.7-14.3,18.7-32.3v-14.3c0-16.7-7.2-25.1-22.5-25.1s-27.7,5.4-37.1,13.3v28.9c0,16.3,5.4,25.3,18.9,29.5v6.2h-47.4v-6.2c11.6-5.4,16.7-12,16.7-29.5Z"/>
    <path class="cls-1" d="m445.1,657.3v-12c0-16.1-5.2-24.3-16.1-31.1v-6l24.9-12h6.2c-2.4,10.8-3.2,24.5-3.2,47.8v13.1c0,16.7,4.8,23.9,17.3,29.5v6.2h-46.4v-6.2c12.4-5.6,17.3-13.3,17.3-29.5Zm4.2-105.4c8,0,13.7,5.6,13.7,13.3s-5.8,13.3-13.7,13.3-13.7-6.4-13.7-13.3,5.8-13.3,13.7-13.3Z"/>
    <path class="cls-1" d="m499.9,657.3v-12c0-16.5-5.2-24.5-14.7-31.1v-6.2l24.7-11.8h6.2c-1.2,5-2.2,10.8-3,16.9,12-11.8,22.1-16.9,32.9-16.9s21.5,6.6,24.9,19.3c12.7-13.5,25.3-19.3,35.7-19.3,17.1,0,28.1,12.6,28.1,31.5v29.1c0,17.5,4.6,24.9,15.7,29.9v6.2h-47.4v-6.2c12.9-5.2,20.1-13.1,20.1-29.5v-16.7c0-15.5-9.6-24.7-21.5-24.7s-20.9,5.2-29.1,12.2v29.1c0,16.5,6.8,24.1,18.9,29.7v6.2h-49.4v-6.2c12.7-5.2,18.9-13.1,18.9-29.5v-18.1c0-15.5-8.2-23.3-19.9-23.3s-20.9,5-29.1,12c-.2,3.6-.4,7.4-.4,11.2v18.3c0,16.3,6.2,24.3,18.9,29.5v6.2h-47.4v-6.2c11.2-5,16.9-12.7,16.9-29.5Z"/>
    <path class="cls-1" d="m676.2,657.3v-12c0-16.1-5.2-24.3-16.1-31.1v-6l24.9-12h6.2c-2.4,10.8-3.2,24.5-3.2,47.8v13.1c0,16.7,4.8,23.9,17.3,29.5v6.2h-46.4v-6.2c12.4-5.6,17.3-13.3,17.3-29.5Zm4.2-105.4c8,0,13.7,5.6,13.7,13.3s-5.8,13.3-13.7,13.3-13.7-6.4-13.7-13.3,5.8-13.3,13.7-13.3Z"/>
    <path class="cls-1" d="m778.8,693h-65.7v-6.2c10.8-7,24.5-20.9,34.3-33.5l25.1-32.9c-3.6-2.8-12.2-5.6-20.5-5.6s-21.7,4.4-28.9,11.8l-5-3.2,14.7-27.1h5.8c4,2,10.2,3,16.1,3h53.2v6.2c-9.6,7-21.1,17.1-30.5,29.3l-27.9,35.5c6.6,4.8,15.9,7.6,25.1,7.6,13.1,0,25.3-6.6,33.3-15.3l5.4,2.8-12.7,30.7h-5.8c-4-2-9.2-3-15.9-3Z"/>
    <path class="cls-1" d="m834.1,664.5v-21.3c0-14.9-4-23.5-13.1-29.3v-5.8l21.9-11.8h5.8c-2.6,15.9-3,29.5-3,41.6v13.5c0,17.3,10.2,25.7,24.7,25.7s24.3-6.8,32.3-15.9v-16.3c0-15.9-4.4-24.5-14.5-31.1v-5.8l23.3-11.8h5.8c-2.6,15.9-3,29.5-3,43.6v8.8c0,18.1,4,27.3,15.3,32.5v6l-17.3,8.8h-4.4c-2.6-5.4-4.6-11.8-5-20.5-9.4,10.6-22.7,20.5-38.2,20.5s-30.5-12.3-30.5-31.5Z"/>
  </g>
  <g>
    <rect class="cls-1" x="801.1" y="717.9" width="58.5" height="2.6"/>
    <rect class="cls-1" x="816.2" y="739.6" width="37" height="2.6"/>
    <rect class="cls-1" x="869.7" y="730.6" width="20.6" height="2.6"/>
    <rect class="cls-1" x="816.1" y="765.8" width="37" height="2.6"/>
    <path class="cls-1" d="m887.1,773.3v-2.6c5.1,0,8.1-.1,10-.2.8,0,1.5-.7,1.5-1.5v-54.6h2.6v54.6c0,2.2-1.8,4-4,4.1-1.8,0-4.9.1-10,.2Z"/>
    <rect class="cls-1" x="815.5" y="739.6" width="2.6" height="34.8"/>
    <rect class="cls-1" x="851.8" y="739.6" width="2.6" height="34.8"/>
    <path class="cls-1" d="m800.4,758.1l-1.5-2.1c.2-.2,23.3-16.3,24.2-36.8h2.6c-.9,21.9-24.3,38.3-25.3,39Z"/>
    <path class="cls-1" d="m871.9,766.6l-1.7-1.9c.2-.2,19.4-17.3,19.4-34h2.6c0,17.9-19.4,35.3-20.3,36Z"/>
    <path class="cls-1" d="m929,766.9c-.9-.5-23-11.8-30.5-39l2.5-.7c7.1,26,28.9,37.3,29.1,37.4l-1.2,2.3Z"/>
    <rect class="cls-1" x="904.4" y="734" width="23.6" height="2.6" transform="translate(-251.6 863.2) rotate(-45)"/>
  </g>
</svg>